<mxfile host="Electron" agent="Mozilla/5.0 (X11; Linux x86_64) AppleWebKit/537.36 (KHTML, like Gecko) draw.io/28.0.6 Chrome/138.0.7204.100 Electron/37.2.3 Safari/537.36" version="28.0.6">
  <diagram name="Page-1" id="tdL3OlcL4nhrMiRy9fMq">
    <mxGraphModel dx="2812" dy="1708" grid="1" gridSize="10" guides="1" tooltips="1" connect="1" arrows="1" fold="1" page="1" pageScale="1" pageWidth="827" pageHeight="1169" math="0" shadow="0">
      <root>
        <mxCell id="0" />
        <mxCell id="1" parent="0" />
        <mxCell id="SnEho7EBXYC5S2EJh5r8-27" style="edgeStyle=orthogonalEdgeStyle;rounded=0;orthogonalLoop=1;jettySize=auto;html=1;exitX=0.5;exitY=1;exitDx=0;exitDy=0;entryX=0.5;entryY=0;entryDx=0;entryDy=0;textShadow=1;labelBackgroundColor=none;" edge="1" parent="1" source="0FAGPxJUvxh_91AIkJtf-14" target="SnEho7EBXYC5S2EJh5r8-26">
          <mxGeometry relative="1" as="geometry" />
        </mxCell>
        <mxCell id="0FAGPxJUvxh_91AIkJtf-14" value="Начало" style="rounded=1;whiteSpace=wrap;html=1;arcSize=50;fontFamily=JetBrainsMono Nerd Font;fontStyle=0;fontSize=12;strokeWidth=2;textShadow=1;labelBackgroundColor=none;" parent="1" vertex="1">
          <mxGeometry x="290" y="190" width="180" height="30" as="geometry" />
        </mxCell>
        <mxCell id="0FAGPxJUvxh_91AIkJtf-15" value="Конец" style="rounded=1;whiteSpace=wrap;html=1;arcSize=50;fontFamily=JetBrainsMono Nerd Font;fontStyle=0;fontSize=12;strokeWidth=2;textShadow=1;labelBackgroundColor=none;" parent="1" vertex="1">
          <mxGeometry x="290" y="780" width="180" height="30" as="geometry" />
        </mxCell>
        <mxCell id="Axf4qTLow6-PyKa1j1aG-4" value="&lt;font face=&quot;JetBrainsMono Nerd Font&quot;&gt;Случайным образом выбирает&lt;br&gt;номер штыря пирамидки&amp;nbsp;&lt;/font&gt;&lt;span style=&quot;font-family: &amp;quot;JetBrainsMono Nerd Font&amp;quot;;&quot;&gt;(0-9)&lt;/span&gt;" style="strokeWidth=2;html=1;shape=mxgraph.flowchart.annotation_1;align=right;pointerEvents=1;direction=west;textShadow=1;labelBackgroundColor=none;" parent="1" vertex="1">
          <mxGeometry x="260" y="310" width="10" height="30" as="geometry" />
        </mxCell>
        <mxCell id="Axf4qTLow6-PyKa1j1aG-5" style="edgeStyle=orthogonalEdgeStyle;rounded=0;orthogonalLoop=1;jettySize=auto;html=1;exitX=0;exitY=0.5;exitDx=0;exitDy=0;entryX=0;entryY=0.5;entryDx=0;entryDy=0;entryPerimeter=0;dashed=1;endArrow=none;endFill=0;textShadow=1;labelBackgroundColor=none;" parent="1" target="Axf4qTLow6-PyKa1j1aG-4" edge="1" source="Axf4qTLow6-PyKa1j1aG-6">
          <mxGeometry relative="1" as="geometry">
            <mxPoint x="469" y="365" as="sourcePoint" />
          </mxGeometry>
        </mxCell>
        <mxCell id="Axf4qTLow6-PyKa1j1aG-8" value="&lt;div&gt;&lt;font face=&quot;JetBrainsMono Nerd Font&quot;&gt;Генератор срабатывания Аварийной&lt;br&gt;лампочки на основе введенного шанса&lt;/font&gt;&lt;/div&gt;" style="strokeWidth=2;html=1;shape=mxgraph.flowchart.annotation_1;align=right;pointerEvents=1;direction=west;textShadow=1;labelBackgroundColor=none;" parent="1" vertex="1">
          <mxGeometry x="260" y="510" width="10" height="30" as="geometry" />
        </mxCell>
        <mxCell id="Axf4qTLow6-PyKa1j1aG-9" style="edgeStyle=orthogonalEdgeStyle;rounded=0;orthogonalLoop=1;jettySize=auto;html=1;exitX=0;exitY=0.5;exitDx=0;exitDy=0;entryX=0;entryY=0.5;entryDx=0;entryDy=0;entryPerimeter=0;dashed=1;endArrow=none;endFill=0;textShadow=1;labelBackgroundColor=none;" parent="1" target="Axf4qTLow6-PyKa1j1aG-8" edge="1" source="Axf4qTLow6-PyKa1j1aG-10">
          <mxGeometry relative="1" as="geometry">
            <mxPoint x="470" y="525" as="sourcePoint" />
          </mxGeometry>
        </mxCell>
        <mxCell id="Axf4qTLow6-PyKa1j1aG-10" value="&lt;div&gt;&lt;span style=&quot;color: light-dark(rgb(0, 0, 0), rgb(255, 255, 255));&quot;&gt;Генератор 2&lt;/span&gt;&lt;/div&gt;" style="rounded=0;whiteSpace=wrap;html=1;strokeWidth=2;fontFamily=JetBrainsMono Nerd Font;fontSize=12;textShadow=1;labelBackgroundColor=none;" parent="1" vertex="1">
          <mxGeometry x="290" y="510" width="180" height="30" as="geometry" />
        </mxCell>
        <mxCell id="Axf4qTLow6-PyKa1j1aG-21" style="edgeStyle=orthogonalEdgeStyle;rounded=0;orthogonalLoop=1;jettySize=auto;html=1;exitX=0.5;exitY=1;exitDx=0;exitDy=0;exitPerimeter=0;entryX=0.5;entryY=0;entryDx=0;entryDy=0;textShadow=1;labelBackgroundColor=none;" parent="1" source="Axf4qTLow6-PyKa1j1aG-15" target="Axf4qTLow6-PyKa1j1aG-18" edge="1">
          <mxGeometry relative="1" as="geometry" />
        </mxCell>
        <mxCell id="Axf4qTLow6-PyKa1j1aG-22" value="да" style="edgeLabel;html=1;align=center;verticalAlign=middle;resizable=0;points=[];textShadow=1;labelBackgroundColor=none;" parent="Axf4qTLow6-PyKa1j1aG-21" vertex="1" connectable="0">
          <mxGeometry x="-0.4" relative="1" as="geometry">
            <mxPoint x="9" y="-1" as="offset" />
          </mxGeometry>
        </mxCell>
        <mxCell id="SnEho7EBXYC5S2EJh5r8-12" style="edgeStyle=orthogonalEdgeStyle;rounded=0;orthogonalLoop=1;jettySize=auto;html=1;exitX=1;exitY=0.5;exitDx=0;exitDy=0;exitPerimeter=0;entryX=0.5;entryY=0;entryDx=0;entryDy=0;textShadow=1;labelBackgroundColor=none;" edge="1" parent="1" source="Axf4qTLow6-PyKa1j1aG-15" target="Axf4qTLow6-PyKa1j1aG-6">
          <mxGeometry relative="1" as="geometry">
            <Array as="points">
              <mxPoint x="490" y="585" />
              <mxPoint x="490" y="290" />
              <mxPoint x="380" y="290" />
            </Array>
          </mxGeometry>
        </mxCell>
        <mxCell id="SnEho7EBXYC5S2EJh5r8-24" value="нет" style="edgeLabel;html=1;align=center;verticalAlign=middle;resizable=0;points=[];textShadow=1;labelBackgroundColor=none;" vertex="1" connectable="0" parent="SnEho7EBXYC5S2EJh5r8-12">
          <mxGeometry x="-0.9613" y="-4" relative="1" as="geometry">
            <mxPoint x="-1" y="-13" as="offset" />
          </mxGeometry>
        </mxCell>
        <mxCell id="Axf4qTLow6-PyKa1j1aG-15" value="А.Л. зажглась?" style="strokeWidth=2;html=1;shape=mxgraph.flowchart.decision;whiteSpace=wrap;fontFamily=JetBrainsMono Nerd Font;fontSize=12;textShadow=1;labelBackgroundColor=none;" parent="1" vertex="1">
          <mxGeometry x="290" y="560" width="180" height="50" as="geometry" />
        </mxCell>
        <mxCell id="Axf4qTLow6-PyKa1j1aG-16" style="edgeStyle=orthogonalEdgeStyle;rounded=0;orthogonalLoop=1;jettySize=auto;html=1;exitX=0.5;exitY=1;exitDx=0;exitDy=0;entryX=0.5;entryY=0;entryDx=0;entryDy=0;entryPerimeter=0;textShadow=1;labelBackgroundColor=none;" parent="1" source="Axf4qTLow6-PyKa1j1aG-10" target="Axf4qTLow6-PyKa1j1aG-15" edge="1">
          <mxGeometry relative="1" as="geometry" />
        </mxCell>
        <mxCell id="SnEho7EBXYC5S2EJh5r8-23" style="edgeStyle=orthogonalEdgeStyle;rounded=0;orthogonalLoop=1;jettySize=auto;html=1;exitX=0.5;exitY=1;exitDx=0;exitDy=0;entryX=0.5;entryY=0;entryDx=0;entryDy=0;textShadow=1;labelBackgroundColor=none;" edge="1" parent="1" source="Axf4qTLow6-PyKa1j1aG-18" target="SnEho7EBXYC5S2EJh5r8-22">
          <mxGeometry relative="1" as="geometry" />
        </mxCell>
        <mxCell id="Axf4qTLow6-PyKa1j1aG-18" value="Генератор 3" style="rounded=0;whiteSpace=wrap;html=1;strokeWidth=2;fontFamily=JetBrainsMono Nerd Font;fontSize=12;textShadow=1;labelBackgroundColor=none;" parent="1" vertex="1">
          <mxGeometry x="290" y="630" width="180" height="30" as="geometry" />
        </mxCell>
        <mxCell id="Axf4qTLow6-PyKa1j1aG-19" value="&lt;font face=&quot;JetBrainsMono Nerd Font&quot;&gt;Случайным образом выбирает&lt;br&gt;пирамидку с кол-вом колец &amp;gt;= 3&lt;br&gt;&lt;/font&gt;" style="strokeWidth=2;html=1;shape=mxgraph.flowchart.annotation_1;align=right;pointerEvents=1;direction=west;textShadow=1;labelBackgroundColor=none;" parent="1" vertex="1">
          <mxGeometry x="260" y="630" width="10" height="30" as="geometry" />
        </mxCell>
        <mxCell id="Axf4qTLow6-PyKa1j1aG-20" style="edgeStyle=orthogonalEdgeStyle;rounded=0;orthogonalLoop=1;jettySize=auto;html=1;exitX=0;exitY=0.5;exitDx=0;exitDy=0;entryX=0;entryY=0.5;entryDx=0;entryDy=0;entryPerimeter=0;dashed=1;endArrow=none;endFill=0;textShadow=1;labelBackgroundColor=none;" parent="1" source="Axf4qTLow6-PyKa1j1aG-18" target="Axf4qTLow6-PyKa1j1aG-19" edge="1">
          <mxGeometry relative="1" as="geometry">
            <mxPoint x="480" y="645" as="sourcePoint" />
          </mxGeometry>
        </mxCell>
        <mxCell id="Axf4qTLow6-PyKa1j1aG-28" style="edgeStyle=orthogonalEdgeStyle;rounded=0;orthogonalLoop=1;jettySize=auto;html=1;entryX=0.5;entryY=0;entryDx=0;entryDy=0;textShadow=1;labelBackgroundColor=none;" parent="1" target="Axf4qTLow6-PyKa1j1aG-6" edge="1">
          <mxGeometry relative="1" as="geometry">
            <mxPoint x="380" y="360" as="targetPoint" />
            <Array as="points">
              <mxPoint x="380" y="690" />
              <mxPoint x="380" y="730" />
              <mxPoint x="490" y="730" />
              <mxPoint x="490" y="290" />
              <mxPoint x="380" y="290" />
            </Array>
            <mxPoint x="390" y="690" as="sourcePoint" />
          </mxGeometry>
        </mxCell>
        <mxCell id="SnEho7EBXYC5S2EJh5r8-4" style="edgeStyle=orthogonalEdgeStyle;rounded=0;orthogonalLoop=1;jettySize=auto;html=1;exitX=0.5;exitY=1;exitDx=0;exitDy=0;exitPerimeter=0;entryX=0.5;entryY=0;entryDx=0;entryDy=0;textShadow=1;labelBackgroundColor=none;" edge="1" parent="1" source="SnEho7EBXYC5S2EJh5r8-3" target="Axf4qTLow6-PyKa1j1aG-10">
          <mxGeometry relative="1" as="geometry">
            <mxPoint x="560" y="460" as="targetPoint" />
            <Array as="points">
              <mxPoint x="380" y="490" />
              <mxPoint x="380" y="490" />
            </Array>
          </mxGeometry>
        </mxCell>
        <mxCell id="SnEho7EBXYC5S2EJh5r8-5" value="нет" style="edgeLabel;html=1;align=center;verticalAlign=middle;resizable=0;points=[];textShadow=1;labelBackgroundColor=none;" vertex="1" connectable="0" parent="SnEho7EBXYC5S2EJh5r8-4">
          <mxGeometry x="-0.2667" y="-1" relative="1" as="geometry">
            <mxPoint x="14" y="3" as="offset" />
          </mxGeometry>
        </mxCell>
        <mxCell id="SnEho7EBXYC5S2EJh5r8-17" style="edgeStyle=orthogonalEdgeStyle;rounded=0;orthogonalLoop=1;jettySize=auto;html=1;exitX=0;exitY=0.5;exitDx=0;exitDy=0;exitPerimeter=0;entryX=0.5;entryY=0;entryDx=0;entryDy=0;textShadow=1;labelBackgroundColor=none;" edge="1" parent="1" source="SnEho7EBXYC5S2EJh5r8-3" target="0FAGPxJUvxh_91AIkJtf-15">
          <mxGeometry relative="1" as="geometry">
            <Array as="points">
              <mxPoint x="10" y="460" />
              <mxPoint x="10" y="750" />
              <mxPoint x="380" y="750" />
            </Array>
          </mxGeometry>
        </mxCell>
        <mxCell id="SnEho7EBXYC5S2EJh5r8-18" value="да" style="edgeLabel;html=1;align=center;verticalAlign=middle;resizable=0;points=[];textShadow=1;labelBackgroundColor=none;" vertex="1" connectable="0" parent="SnEho7EBXYC5S2EJh5r8-17">
          <mxGeometry x="-0.9481" y="1" relative="1" as="geometry">
            <mxPoint x="26" y="-13" as="offset" />
          </mxGeometry>
        </mxCell>
        <mxCell id="SnEho7EBXYC5S2EJh5r8-3" value="Все штыри име-&lt;br&gt;ют 12 колец" style="strokeWidth=2;html=1;shape=mxgraph.flowchart.decision;whiteSpace=wrap;fontFamily=JetBrainsMono Nerd Font;fontSize=12;textShadow=1;labelBackgroundColor=none;" vertex="1" parent="1">
          <mxGeometry x="290" y="430" width="180" height="60" as="geometry" />
        </mxCell>
        <mxCell id="SnEho7EBXYC5S2EJh5r8-20" style="edgeStyle=orthogonalEdgeStyle;rounded=0;orthogonalLoop=1;jettySize=auto;html=1;exitX=0.5;exitY=1;exitDx=0;exitDy=0;entryX=0.5;entryY=0;entryDx=0;entryDy=0;textShadow=1;labelBackgroundColor=none;" edge="1" parent="1" source="Axf4qTLow6-PyKa1j1aG-6" target="SnEho7EBXYC5S2EJh5r8-19">
          <mxGeometry relative="1" as="geometry" />
        </mxCell>
        <mxCell id="Axf4qTLow6-PyKa1j1aG-6" value="Генератор 1" style="rounded=0;whiteSpace=wrap;html=1;strokeWidth=2;fontFamily=JetBrainsMono Nerd Font;fontSize=12;textShadow=1;labelBackgroundColor=none;" parent="1" vertex="1">
          <mxGeometry x="290" y="310" width="180" height="30" as="geometry" />
        </mxCell>
        <mxCell id="SnEho7EBXYC5S2EJh5r8-19" value="Добавление кольца на выбранный штырь пирамидки" style="rounded=0;whiteSpace=wrap;html=1;strokeWidth=2;fontFamily=JetBrainsMono Nerd Font;fontSize=12;textShadow=1;labelBackgroundColor=none;" vertex="1" parent="1">
          <mxGeometry x="290" y="360" width="180" height="50" as="geometry" />
        </mxCell>
        <mxCell id="SnEho7EBXYC5S2EJh5r8-21" style="edgeStyle=orthogonalEdgeStyle;rounded=0;orthogonalLoop=1;jettySize=auto;html=1;exitX=0.5;exitY=1;exitDx=0;exitDy=0;entryX=0.5;entryY=0;entryDx=0;entryDy=0;entryPerimeter=0;textShadow=1;labelBackgroundColor=none;" edge="1" parent="1" source="SnEho7EBXYC5S2EJh5r8-19" target="SnEho7EBXYC5S2EJh5r8-3">
          <mxGeometry relative="1" as="geometry" />
        </mxCell>
        <mxCell id="SnEho7EBXYC5S2EJh5r8-22" value="&lt;span style=&quot;text-align: right; text-wrap-mode: nowrap;&quot;&gt;Удаление 3 колец с&lt;/span&gt;&lt;div&gt;&lt;span style=&quot;text-align: right; text-wrap-mode: nowrap;&quot;&gt;выбранной пирамидки&lt;/span&gt;&lt;/div&gt;" style="rounded=0;whiteSpace=wrap;html=1;strokeWidth=2;fontFamily=JetBrainsMono Nerd Font;fontSize=12;textShadow=1;labelBackgroundColor=none;" vertex="1" parent="1">
          <mxGeometry x="290" y="680" width="180" height="30" as="geometry" />
        </mxCell>
        <mxCell id="SnEho7EBXYC5S2EJh5r8-28" style="edgeStyle=orthogonalEdgeStyle;rounded=0;orthogonalLoop=1;jettySize=auto;html=1;exitX=0.5;exitY=1;exitDx=0;exitDy=0;entryX=0.5;entryY=0;entryDx=0;entryDy=0;textShadow=1;labelBackgroundColor=none;" edge="1" parent="1" source="SnEho7EBXYC5S2EJh5r8-26" target="Axf4qTLow6-PyKa1j1aG-6">
          <mxGeometry relative="1" as="geometry" />
        </mxCell>
        <mxCell id="SnEho7EBXYC5S2EJh5r8-26" value="Нач. уст." style="rounded=0;whiteSpace=wrap;html=1;strokeWidth=2;fontFamily=JetBrainsMono Nerd Font;fontSize=12;textShadow=1;labelBackgroundColor=none;" vertex="1" parent="1">
          <mxGeometry x="290" y="240" width="180" height="30" as="geometry" />
        </mxCell>
        <mxCell id="SnEho7EBXYC5S2EJh5r8-29" value="Шанс срабатывания авар. лампочки" style="strokeWidth=2;html=1;shape=mxgraph.flowchart.annotation_1;align=right;pointerEvents=1;direction=west;textShadow=1;labelBackgroundColor=none;" vertex="1" parent="1">
          <mxGeometry x="260" y="240" width="10" height="30" as="geometry" />
        </mxCell>
        <mxCell id="SnEho7EBXYC5S2EJh5r8-30" style="edgeStyle=orthogonalEdgeStyle;rounded=0;orthogonalLoop=1;jettySize=auto;html=1;exitX=0;exitY=0.5;exitDx=0;exitDy=0;entryX=0;entryY=0.5;entryDx=0;entryDy=0;entryPerimeter=0;dashed=1;endArrow=none;endFill=0;textShadow=1;labelBackgroundColor=none;" edge="1" target="SnEho7EBXYC5S2EJh5r8-29" parent="1">
          <mxGeometry relative="1" as="geometry">
            <mxPoint x="289" y="255" as="sourcePoint" />
          </mxGeometry>
        </mxCell>
        <mxCell id="SnEho7EBXYC5S2EJh5r8-31" value="&lt;div&gt;&lt;font&gt;- Есть 10 штырей для пирамидок по 12 колец в каждой.&lt;/font&gt;&lt;/div&gt;&lt;div&gt;&lt;font&gt;- Генератор чисел №1 - генерирует номер пирамидки (0-9)&amp;nbsp;&lt;/font&gt;&lt;/div&gt;&lt;div&gt;&lt;font&gt;и добавляет 1 кольцо на пирамидку с соответствующим цветом.&lt;/font&gt;&lt;/div&gt;&lt;div&gt;&lt;font&gt;- Генератор чисел №2 - проверка аварийной лампочки. &lt;br&gt;Аварийная лампочка срабатывает в соответствии с заданным&lt;br&gt;ей шансом на срабатывание 0-100% (0 - никогда, 100 - всегда)&lt;br&gt;шанс срабатывание задается слайдером. При срабатывании&lt;br&gt;аварийной лампочки, убирается 3 кольца с пирамидки,&lt;br&gt;которую выберет Генератор чисел №3 (только из пирамидок у &lt;br&gt;которых колец &amp;gt;= 3)&lt;/font&gt;&lt;/div&gt;&lt;div&gt;&lt;span style=&quot;color: light-dark(rgb(0, 0, 0), rgb(255, 255, 255));&quot;&gt;&lt;font&gt;- Программа завершена когда все пирамидки собраны.&lt;/font&gt;&lt;/span&gt;&lt;/div&gt;" style="text;html=1;align=left;verticalAlign=middle;resizable=0;points=[];autosize=1;strokeColor=none;fillColor=none;fontFamily=JetBrainsMono Nerd Font;textShadow=1;labelBackgroundColor=none;" vertex="1" parent="1">
          <mxGeometry x="20" y="10" width="460" height="170" as="geometry" />
        </mxCell>
      </root>
    </mxGraphModel>
  </diagram>
</mxfile>
